<?xml version="1.0" standalone="no"?>
<!DOCTYPE svg PUBLIC "-//W3C//DTD SVG 20010904//EN"
 "http://www.w3.org/TR/2001/REC-SVG-20010904/DTD/svg10.dtd">
<svg version="1.0" xmlns="http://www.w3.org/2000/svg"
 width="400.000000pt" height="400.000000pt" viewBox="0 0 400.000000 400.000000"
 preserveAspectRatio="xMidYMid meet">
<metadata>
Created by potrace 1.11, written by Peter Selinger 2001-2013
</metadata>
<g transform="translate(0.000000,400.000000) scale(0.100000,-0.100000)"
fill="#000000" stroke="none">
<path d="M1840 3979 c-53 -4 -154 -19 -225 -34 -794 -159 -1400 -765 -1560
-1557 -53 -266 -53 -500 0 -767 92 -457 341 -869 700 -1158 377 -303 905 -471
1368 -434 910 73 1634 710 1812 1593 53 266 53 500 0 767 -92 457 -341 869
-700 1158 -305 245 -697 399 -1101 433 -132 11 -157 11 -294 -1z m220 -610 c0
-231 3 -419 8 -417 4 2 26 14 49 28 l43 25 0 313 0 312 65 0 65 0 0 -269 0
-270 23 12 c12 7 41 25 65 40 l42 27 0 176 0 175 63 -3 62 -3 0 -1020 0 -1020
-23 -75 c-68 -223 -212 -357 -424 -395 l-38 -7 -2 -357 -3 -356 -60 0 -60 0
-5 120 -5 120 -57 86 c-83 124 -177 212 -297 277 -70 38 -72 40 -45 46 37 8
165 -9 224 -29 54 -19 149 -66 156 -77 16 -25 24 2 24 81 l0 89 -37 7 c-213
38 -357 172 -425 395 l-23 75 0 1020 0 1020 63 3 62 3 0 -163 0 -163 39 -27
c22 -16 43 -28 47 -28 4 0 16 -7 26 -17 17 -16 18 -7 18 245 l0 262 65 0 65 0
0 -299 0 -300 46 -30 c25 -17 47 -31 50 -31 2 0 4 185 4 410 l0 410 65 0 65 0
0 -421z"/>
<path d="M1570 2881 l0 -148 93 -60 c212 -138 237 -154 252 -159 13 -5 15 14
15 144 l0 150 -82 52 c-46 29 -109 70 -141 91 -32 22 -61 39 -65 39 -4 0 -18
9 -32 20 -14 11 -28 20 -32 20 -5 0 -8 -67 -8 -149z"/>
<path d="M2369 2983 c-13 -10 -33 -24 -44 -30 -11 -7 -75 -47 -142 -90 l-123
-77 0 -153 c0 -84 2 -153 4 -153 2 0 26 15 53 33 28 17 89 57 137 87 48 30
105 68 127 83 l39 29 0 144 c0 156 -3 162 -51 127z"/>
<path d="M1570 2413 l0 -158 49 -30 c82 -51 140 -88 224 -142 44 -29 82 -53
84 -53 2 0 3 72 3 160 0 129 -3 160 -14 160 -7 0 -19 7 -26 15 -6 8 -48 36
-93 62 -45 26 -91 55 -101 65 -11 10 -24 18 -29 18 -4 0 -23 11 -40 24 -60 44
-57 51 -57 -121z"/>
<path d="M2318 2482 c-48 -31 -126 -82 -173 -112 l-85 -54 0 -153 c0 -84 2
-153 5 -153 4 0 217 132 271 168 10 7 34 22 52 33 l32 21 0 154 c0 85 -3 154
-7 154 -5 -1 -47 -27 -95 -58z"/>
<path d="M1570 1955 l0 -135 28 -17 c44 -29 254 -180 288 -207 18 -14 35 -26
38 -26 3 0 6 66 6 148 l0 147 -62 41 c-172 113 -220 144 -227 144 -4 0 -16 9
-26 20 -39 43 -45 28 -45 -115z"/>
<path d="M2376 2045 c-20 -14 -38 -25 -40 -25 -2 0 -52 -33 -113 -72 -60 -40
-121 -79 -136 -87 l-27 -14 0 -154 0 -153 74 55 c41 30 78 55 82 55 3 0 28 17
55 38 26 20 71 53 98 72 l51 35 0 138 c0 75 -2 137 -4 137 -2 0 -20 -11 -40
-25z"/>
<path d="M1574 1573 c7 -83 33 -190 60 -242 41 -79 121 -145 213 -174 87 -28
83 -35 83 116 l0 134 -77 51 c-43 29 -103 70 -133 92 -103 76 -139 100 -146
100 -4 0 -4 -35 0 -77z"/>
<path d="M2373 1597 c-15 -13 -45 -34 -66 -46 -21 -13 -44 -30 -53 -38 -8 -8
-47 -37 -87 -64 -116 -78 -107 -61 -107 -193 0 -132 -4 -127 83 -99 142 46
226 149 261 325 18 87 20 138 7 138 -5 0 -22 -10 -38 -23z"/>
</g>
</svg>
